<svg xmlns="http://www.w3.org/2000/svg" viewBox="-7.8 -8 306.4 392" width="306.4" height="392">
<defs><marker id="arrow" viewBox="0 0 10 10" refX="9" refY="5" markerWidth="6" markerHeight="6" orient="auto-start-reverse"><path d="M0,0 L10,5 L0,10 z" fill="#FF007F"/></marker></defs>
<style>.stock{fill:#fff;stroke:#000;stroke-width:1.5}.aux{fill:#fff;stroke:#000;stroke-width:1.5}.flow-pipe{fill:none;stroke:#000;stroke-width:3}.flow-valve{fill:#fff;stroke:#000;stroke-width:1.5}.cloud{fill:#fff;stroke:#000;stroke-width:1}.connector{fill:none;stroke:#FF007F;stroke-width:1}.module{fill:none;stroke:#666;stroke-width:1}.label{font-family:Arial,sans-serif;font-size:12px;fill:#000}</style>
<polyline class="connector" points="144,81 144,103" marker-end="url(#arrow)"/>
<polyline class="connector" points="137,313 115,313" marker-end="url(#arrow)"/>
<polyline class="flow-pipe" points="115,233 175,233"/>
<path class="flow-valve" d="M138,226 L152,240 L152,226 L138,240 z"/>
<path class="cloud" d="M104,233 a5.5,5.5 0 0 1 5.5,-5.5 a5.5,5.5 0 0 1 11,0 a5.5,5.5 0 0 1 5.5,5.5 a5.5,5.5 0 0 1 -22,0 z"/>
<path class="cloud" d="M164,233 a5.5,5.5 0 0 1 5.5,-5.5 a5.5,5.5 0 0 1 11,0 a5.5,5.5 0 0 1 5.5,5.5 a5.5,5.5 0 0 1 -22,0 z"/>
<text class="label" x="145" y="254.2" text-anchor="middle">external exchange</text>
<polyline class="flow-pipe" points="91,113 197,113"/>
<path class="flow-valve" d="M137,106 L151,120 L151,106 L137,120 z"/>
<text class="label" x="144" y="134.2" text-anchor="middle">transfer</text>
<rect class="stock" x="196.5" y="95.5" width="45" height="35"/>
<text class="label" x="219" y="92.7" text-anchor="middle">destination</text>
<rect class="stock" x="46.5" y="95.5" width="45" height="35"/>
<text class="label" x="69" y="92.7" text-anchor="middle">source</text>
<circle class="aux" cx="155" cy="313" r="18"/>
<text class="label" x="155" y="342.2" text-anchor="middle">observation</text>
<circle class="aux" cx="97" cy="313" r="18"/>
<text class="label" x="97" y="292.2" text-anchor="middle">scaled observation</text>
<circle class="aux" cx="144" cy="63" r="18"/>
<text class="label" x="144" y="42.2" text-anchor="middle">transfer rate</text>
</svg>