<svg xmlns="http://www.w3.org/2000/svg" viewBox="-8 -8 278 171" width="278" height="171">
<defs><marker id="arrow" viewBox="0 0 10 10" refX="9" refY="5" markerWidth="6" markerHeight="6" orient="auto-start-reverse"><path d="M0,0 L10,5 L0,10 z" fill="#FF007F"/></marker></defs>
<style>.stock{fill:#fff;stroke:#000;stroke-width:1.5}.aux{fill:#fff;stroke:#000;stroke-width:1.5}.flow-pipe{fill:none;stroke:#000;stroke-width:3}.flow-valve{fill:#fff;stroke:#000;stroke-width:1.5}.cloud{fill:#fff;stroke:#000;stroke-width:1}.connector{fill:none;stroke:#FF007F;stroke-width:1}.module{fill:none;stroke:#666;stroke-width:1}.label{font-family:Arial,sans-serif;font-size:12px;fill:#000}</style>
<polyline class="connector" points="172,100 112,100" marker-end="url(#arrow)"/>
<polyline class="connector" points="102,68 102,90" marker-end="url(#arrow)"/>
<polyline class="flow-pipe" points="32,100 172,100"/>
<path class="flow-valve" d="M95,93 L109,107 L109,93 L95,107 z"/>
<path class="cloud" d="M21,100 a5.5,5.5 0 0 1 5.5,-5.5 a5.5,5.5 0 0 1 11,0 a5.5,5.5 0 0 1 5.5,5.5 a5.5,5.5 0 0 1 -22,0 z"/>
<text class="label" x="102" y="121.2" text-anchor="middle">growth</text>
<rect class="stock" x="171.5" y="82.5" width="45" height="35"/>
<text class="label" x="194" y="79.7" text-anchor="middle">Population</text>
<circle class="aux" cx="102" cy="50" r="18"/>
<text class="label" x="102" y="79.2" text-anchor="middle">growth rate</text>
</svg>