<svg xmlns="http://www.w3.org/2000/svg" viewBox="-7.2 -8 394.8 249" width="394.8" height="249">
<defs><marker id="arrow" viewBox="0 0 10 10" refX="9" refY="5" markerWidth="6" markerHeight="6" orient="auto-start-reverse"><path d="M0,0 L10,5 L0,10 z" fill="#FF007F"/></marker></defs>
<style>.stock{fill:#fff;stroke:#000;stroke-width:1.5}.aux{fill:#fff;stroke:#000;stroke-width:1.5}.flow-pipe{fill:none;stroke:#000;stroke-width:3}.flow-valve{fill:#fff;stroke:#000;stroke-width:1.5}.cloud{fill:#fff;stroke:#000;stroke-width:1}.connector{fill:none;stroke:#FF007F;stroke-width:1}.module{fill:none;stroke:#666;stroke-width:1}.label{font-family:Arial,sans-serif;font-size:12px;fill:#000}</style>
<polyline class="connector" points="140,170 76,112" marker-end="url(#arrow)"/>
<polyline class="connector" points="140,54 76,112" marker-end="url(#arrow)"/>
<polyline class="connector" points="326,94 326,32 58,32 58,94" marker-end="url(#arrow)"/>
<polyline class="connector" points="158,152 158,130" marker-end="url(#arrow)"/>
<polyline class="connector" points="158,72 158,94" marker-end="url(#arrow)"/>
<polyline class="connector" points="326,130 326,152 198,152 198,112 176,112" marker-end="url(#arrow)"/>
<polyline class="connector" points="176,170 198,170 218,112 240,112" marker-end="url(#arrow)"/>
<polyline class="connector" points="176,54 240,112" marker-end="url(#arrow)"/>
<polyline class="connector" points="308,112 276,112" marker-end="url(#arrow)"/>
<circle class="aux" cx="158" cy="170" r="18"/>
<text class="label" x="158" y="199.2" text-anchor="middle">left 0</text>
<circle class="aux" cx="158" cy="54" r="18"/>
<text class="label" x="158" y="83.2" text-anchor="middle">left 1</text>
<circle class="aux" cx="326" cy="112" r="18"/>
<text class="label" x="326" y="141.2" text-anchor="middle">left 2</text>
<circle class="aux" cx="58" cy="112" r="18"/>
<text class="label" x="58" y="141.2" text-anchor="middle">right 0</text>
<circle class="aux" cx="158" cy="112" r="18"/>
<text class="label" x="158" y="141.2" text-anchor="middle">right 1</text>
<circle class="aux" cx="258" cy="112" r="18"/>
<text class="label" x="258" y="141.2" text-anchor="middle">right 2</text>
</svg>